<mxfile host="app.diagrams.net" modified="2024-02-28T15:19:01.530Z" agent="Mozilla/5.0 (Windows NT 10.0; Win64; x64) AppleWebKit/537.36 (KHTML, like Gecko) Chrome/121.0.0.0 Safari/537.36 Edg/121.0.0.0" version="23.1.7" etag="VMe8Sgs58XjEJfdqFfam" type="github">
  <diagram name="Strona-1" id="Ys__nR4n_CenFXV7xfDa">
    <mxGraphModel>
      <root>
        <mxCell id="0" />
        <mxCell id="1" parent="0" />
      </root>
    </mxGraphModel>
  </diagram>
</mxfile>
